<mxfile host="app.diagrams.net" modified="2023-10-16T08:19:24.337Z" agent="Mozilla/5.0 (Windows NT 10.0; Win64; x64) AppleWebKit/537.36 (KHTML, like Gecko) Chrome/117.0.0.0 Safari/537.36" etag="BT9tuwVMIoqgG3YvJjcG" version="22.0.4" type="device">
  <diagram id="R2lEEEUBdFMjLlhIrx00" name="Page-1">
    <mxGraphModel dx="1964" dy="610" grid="1" gridSize="10" guides="1" tooltips="1" connect="1" arrows="1" fold="1" page="1" pageScale="1" pageWidth="850" pageHeight="1100" math="0" shadow="0" extFonts="Permanent Marker^https://fonts.googleapis.com/css?family=Permanent+Marker">
      <root>
        <mxCell id="0" />
        <mxCell id="1" parent="0" />
        <mxCell id="juiyQA6KW7tlrc6tnAPI-1" value="empresa" style="rounded=0;whiteSpace=wrap;html=1;" parent="1" vertex="1">
          <mxGeometry x="200" y="210" width="120" height="60" as="geometry" />
        </mxCell>
        <mxCell id="juiyQA6KW7tlrc6tnAPI-3" value="cif" style="ellipse;whiteSpace=wrap;html=1;" parent="1" vertex="1">
          <mxGeometry x="80" y="90" width="140" height="40" as="geometry" />
        </mxCell>
        <mxCell id="juiyQA6KW7tlrc6tnAPI-4" value="nombre" style="ellipse;whiteSpace=wrap;html=1;" parent="1" vertex="1">
          <mxGeometry x="-20" y="140" width="140" height="40" as="geometry" />
        </mxCell>
        <mxCell id="juiyQA6KW7tlrc6tnAPI-5" value="direccion" style="ellipse;whiteSpace=wrap;html=1;" parent="1" vertex="1">
          <mxGeometry x="-30" y="190" width="140" height="40" as="geometry" />
        </mxCell>
        <mxCell id="juiyQA6KW7tlrc6tnAPI-6" value="telefono" style="ellipse;whiteSpace=wrap;html=1;" parent="1" vertex="1">
          <mxGeometry x="-10" y="260" width="140" height="40" as="geometry" />
        </mxCell>
        <mxCell id="juiyQA6KW7tlrc6tnAPI-7" value="&lt;u&gt;&lt;b&gt;cod_empresa&lt;/b&gt;&lt;/u&gt;" style="ellipse;whiteSpace=wrap;html=1;" parent="1" vertex="1">
          <mxGeometry x="60" y="330" width="140" height="40" as="geometry" />
        </mxCell>
        <mxCell id="juiyQA6KW7tlrc6tnAPI-8" value="" style="endArrow=none;html=1;rounded=0;" parent="1" source="juiyQA6KW7tlrc6tnAPI-1" target="juiyQA6KW7tlrc6tnAPI-3" edge="1">
          <mxGeometry width="50" height="50" relative="1" as="geometry">
            <mxPoint x="140" y="180" as="sourcePoint" />
            <mxPoint x="190" y="130" as="targetPoint" />
          </mxGeometry>
        </mxCell>
        <mxCell id="juiyQA6KW7tlrc6tnAPI-9" value="" style="endArrow=none;html=1;rounded=0;exitX=1;exitY=0.5;exitDx=0;exitDy=0;" parent="1" source="juiyQA6KW7tlrc6tnAPI-4" edge="1">
          <mxGeometry width="50" height="50" relative="1" as="geometry">
            <mxPoint x="150" y="270" as="sourcePoint" />
            <mxPoint x="200" y="220" as="targetPoint" />
          </mxGeometry>
        </mxCell>
        <mxCell id="juiyQA6KW7tlrc6tnAPI-10" value="" style="endArrow=none;html=1;rounded=0;exitX=1;exitY=0.5;exitDx=0;exitDy=0;entryX=0;entryY=0.5;entryDx=0;entryDy=0;" parent="1" source="juiyQA6KW7tlrc6tnAPI-5" target="juiyQA6KW7tlrc6tnAPI-1" edge="1">
          <mxGeometry width="50" height="50" relative="1" as="geometry">
            <mxPoint x="130" y="170" as="sourcePoint" />
            <mxPoint x="210" y="230" as="targetPoint" />
          </mxGeometry>
        </mxCell>
        <mxCell id="juiyQA6KW7tlrc6tnAPI-11" value="" style="endArrow=none;html=1;rounded=0;exitX=1;exitY=0.5;exitDx=0;exitDy=0;entryX=0;entryY=0.75;entryDx=0;entryDy=0;" parent="1" source="juiyQA6KW7tlrc6tnAPI-6" target="juiyQA6KW7tlrc6tnAPI-1" edge="1">
          <mxGeometry width="50" height="50" relative="1" as="geometry">
            <mxPoint x="120" y="220" as="sourcePoint" />
            <mxPoint x="210" y="250" as="targetPoint" />
          </mxGeometry>
        </mxCell>
        <mxCell id="juiyQA6KW7tlrc6tnAPI-12" value="" style="endArrow=none;html=1;rounded=0;exitX=0.736;exitY=-0.025;exitDx=0;exitDy=0;exitPerimeter=0;" parent="1" source="juiyQA6KW7tlrc6tnAPI-7" target="juiyQA6KW7tlrc6tnAPI-1" edge="1">
          <mxGeometry width="50" height="50" relative="1" as="geometry">
            <mxPoint x="160" y="340" as="sourcePoint" />
            <mxPoint x="210" y="265" as="targetPoint" />
          </mxGeometry>
        </mxCell>
        <mxCell id="juiyQA6KW7tlrc6tnAPI-13" value="proyecto" style="rounded=0;whiteSpace=wrap;html=1;" parent="1" vertex="1">
          <mxGeometry x="600" y="210" width="120" height="60" as="geometry" />
        </mxCell>
        <mxCell id="juiyQA6KW7tlrc6tnAPI-14" value="fecha_inicio" style="ellipse;whiteSpace=wrap;html=1;" parent="1" vertex="1">
          <mxGeometry x="780" y="120" width="150" height="40" as="geometry" />
        </mxCell>
        <mxCell id="juiyQA6KW7tlrc6tnAPI-15" value="fecha_fin" style="ellipse;whiteSpace=wrap;html=1;" parent="1" vertex="1">
          <mxGeometry x="790" y="180" width="150" height="40" as="geometry" />
        </mxCell>
        <mxCell id="juiyQA6KW7tlrc6tnAPI-16" value="fecha_prevista_fin" style="ellipse;whiteSpace=wrap;html=1;" parent="1" vertex="1">
          <mxGeometry x="780" y="240" width="150" height="40" as="geometry" />
        </mxCell>
        <mxCell id="juiyQA6KW7tlrc6tnAPI-17" value="&lt;b&gt;&lt;u&gt;id_proyecto&lt;/u&gt;&lt;/b&gt;" style="ellipse;whiteSpace=wrap;html=1;" parent="1" vertex="1">
          <mxGeometry x="770" y="310" width="150" height="40" as="geometry" />
        </mxCell>
        <mxCell id="juiyQA6KW7tlrc6tnAPI-18" value="" style="endArrow=none;html=1;rounded=0;exitX=1;exitY=0;exitDx=0;exitDy=0;" parent="1" source="juiyQA6KW7tlrc6tnAPI-13" edge="1">
          <mxGeometry width="50" height="50" relative="1" as="geometry">
            <mxPoint x="730" y="190" as="sourcePoint" />
            <mxPoint x="780" y="140" as="targetPoint" />
          </mxGeometry>
        </mxCell>
        <mxCell id="juiyQA6KW7tlrc6tnAPI-19" value="" style="endArrow=none;html=1;rounded=0;exitX=1;exitY=0.25;exitDx=0;exitDy=0;entryX=0;entryY=0.5;entryDx=0;entryDy=0;" parent="1" source="juiyQA6KW7tlrc6tnAPI-13" target="juiyQA6KW7tlrc6tnAPI-15" edge="1">
          <mxGeometry width="50" height="50" relative="1" as="geometry">
            <mxPoint x="730" y="220" as="sourcePoint" />
            <mxPoint x="790" y="150" as="targetPoint" />
          </mxGeometry>
        </mxCell>
        <mxCell id="juiyQA6KW7tlrc6tnAPI-20" value="" style="endArrow=none;html=1;rounded=0;exitX=1;exitY=0.5;exitDx=0;exitDy=0;entryX=0;entryY=0.5;entryDx=0;entryDy=0;" parent="1" source="juiyQA6KW7tlrc6tnAPI-13" target="juiyQA6KW7tlrc6tnAPI-16" edge="1">
          <mxGeometry width="50" height="50" relative="1" as="geometry">
            <mxPoint x="730" y="235" as="sourcePoint" />
            <mxPoint x="800" y="210" as="targetPoint" />
          </mxGeometry>
        </mxCell>
        <mxCell id="juiyQA6KW7tlrc6tnAPI-21" value="" style="endArrow=none;html=1;rounded=0;exitX=1;exitY=1;exitDx=0;exitDy=0;entryX=0.06;entryY=0.2;entryDx=0;entryDy=0;entryPerimeter=0;" parent="1" source="juiyQA6KW7tlrc6tnAPI-13" target="juiyQA6KW7tlrc6tnAPI-17" edge="1">
          <mxGeometry width="50" height="50" relative="1" as="geometry">
            <mxPoint x="730" y="250" as="sourcePoint" />
            <mxPoint x="790" y="270" as="targetPoint" />
          </mxGeometry>
        </mxCell>
        <mxCell id="juiyQA6KW7tlrc6tnAPI-22" value="trabajador" style="rounded=0;whiteSpace=wrap;html=1;" parent="1" vertex="1">
          <mxGeometry x="600" y="520" width="120" height="60" as="geometry" />
        </mxCell>
        <mxCell id="juiyQA6KW7tlrc6tnAPI-24" value="rol" style="rounded=0;whiteSpace=wrap;html=1;" parent="1" vertex="1">
          <mxGeometry x="170" y="520" width="120" height="60" as="geometry" />
        </mxCell>
        <mxCell id="juiyQA6KW7tlrc6tnAPI-25" value="tiene" style="rhombus;whiteSpace=wrap;html=1;" parent="1" vertex="1">
          <mxGeometry x="410" y="510" width="80" height="80" as="geometry" />
        </mxCell>
        <mxCell id="juiyQA6KW7tlrc6tnAPI-26" value="" style="endArrow=none;html=1;rounded=0;entryX=1;entryY=0.5;entryDx=0;entryDy=0;exitX=0;exitY=0.5;exitDx=0;exitDy=0;" parent="1" source="juiyQA6KW7tlrc6tnAPI-22" target="juiyQA6KW7tlrc6tnAPI-25" edge="1">
          <mxGeometry width="50" height="50" relative="1" as="geometry">
            <mxPoint x="380" y="480" as="sourcePoint" />
            <mxPoint x="430" y="430" as="targetPoint" />
          </mxGeometry>
        </mxCell>
        <mxCell id="juiyQA6KW7tlrc6tnAPI-27" value="" style="endArrow=none;html=1;rounded=0;" parent="1" source="juiyQA6KW7tlrc6tnAPI-25" edge="1">
          <mxGeometry width="50" height="50" relative="1" as="geometry">
            <mxPoint x="550" y="560" as="sourcePoint" />
            <mxPoint x="290" y="550" as="targetPoint" />
          </mxGeometry>
        </mxCell>
        <mxCell id="juiyQA6KW7tlrc6tnAPI-28" value="&lt;b&gt;&lt;u&gt;cod_trabajador&lt;/u&gt;&lt;/b&gt;" style="ellipse;whiteSpace=wrap;html=1;" parent="1" vertex="1">
          <mxGeometry x="910" y="450" width="140" height="40" as="geometry" />
        </mxCell>
        <mxCell id="juiyQA6KW7tlrc6tnAPI-30" value="dni" style="ellipse;whiteSpace=wrap;html=1;" parent="1" vertex="1">
          <mxGeometry x="860" y="530" width="140" height="40" as="geometry" />
        </mxCell>
        <mxCell id="juiyQA6KW7tlrc6tnAPI-33" value="nombrecompleto" style="ellipse;whiteSpace=wrap;html=1;" parent="1" vertex="1">
          <mxGeometry x="875" y="610" width="140" height="40" as="geometry" />
        </mxCell>
        <mxCell id="juiyQA6KW7tlrc6tnAPI-34" value="nombre" style="ellipse;whiteSpace=wrap;html=1;" parent="1" vertex="1">
          <mxGeometry x="800" y="700" width="90" height="40" as="geometry" />
        </mxCell>
        <mxCell id="juiyQA6KW7tlrc6tnAPI-35" value="apellido1" style="ellipse;whiteSpace=wrap;html=1;" parent="1" vertex="1">
          <mxGeometry x="920" y="700" width="90" height="40" as="geometry" />
        </mxCell>
        <mxCell id="juiyQA6KW7tlrc6tnAPI-36" value="apellido2" style="ellipse;whiteSpace=wrap;html=1;" parent="1" vertex="1">
          <mxGeometry x="1040" y="700" width="90" height="40" as="geometry" />
        </mxCell>
        <mxCell id="juiyQA6KW7tlrc6tnAPI-37" value="" style="endArrow=none;html=1;rounded=0;entryX=0;entryY=1;entryDx=0;entryDy=0;" parent="1" target="juiyQA6KW7tlrc6tnAPI-33" edge="1">
          <mxGeometry width="50" height="50" relative="1" as="geometry">
            <mxPoint x="855" y="700" as="sourcePoint" />
            <mxPoint x="905" y="650" as="targetPoint" />
          </mxGeometry>
        </mxCell>
        <mxCell id="juiyQA6KW7tlrc6tnAPI-38" value="" style="endArrow=none;html=1;rounded=0;entryX=0.421;entryY=0.975;entryDx=0;entryDy=0;entryPerimeter=0;" parent="1" source="juiyQA6KW7tlrc6tnAPI-35" target="juiyQA6KW7tlrc6tnAPI-33" edge="1">
          <mxGeometry width="50" height="50" relative="1" as="geometry">
            <mxPoint x="865" y="710" as="sourcePoint" />
            <mxPoint x="915" y="660" as="targetPoint" />
          </mxGeometry>
        </mxCell>
        <mxCell id="juiyQA6KW7tlrc6tnAPI-39" value="" style="endArrow=none;html=1;rounded=0;entryX=1;entryY=1;entryDx=0;entryDy=0;exitX=0.5;exitY=0;exitDx=0;exitDy=0;" parent="1" source="juiyQA6KW7tlrc6tnAPI-36" target="juiyQA6KW7tlrc6tnAPI-33" edge="1">
          <mxGeometry width="50" height="50" relative="1" as="geometry">
            <mxPoint x="865" y="710" as="sourcePoint" />
            <mxPoint x="906" y="654" as="targetPoint" />
          </mxGeometry>
        </mxCell>
        <mxCell id="juiyQA6KW7tlrc6tnAPI-40" value="" style="endArrow=none;html=1;rounded=0;entryX=0;entryY=0.5;entryDx=0;entryDy=0;exitX=1;exitY=0;exitDx=0;exitDy=0;" parent="1" source="juiyQA6KW7tlrc6tnAPI-22" target="juiyQA6KW7tlrc6tnAPI-28" edge="1">
          <mxGeometry width="50" height="50" relative="1" as="geometry">
            <mxPoint x="820" y="500" as="sourcePoint" />
            <mxPoint x="1290" y="690" as="targetPoint" />
          </mxGeometry>
        </mxCell>
        <mxCell id="juiyQA6KW7tlrc6tnAPI-41" value="" style="endArrow=none;html=1;rounded=0;entryX=0;entryY=0.5;entryDx=0;entryDy=0;exitX=1;exitY=0.5;exitDx=0;exitDy=0;" parent="1" source="juiyQA6KW7tlrc6tnAPI-22" target="juiyQA6KW7tlrc6tnAPI-30" edge="1">
          <mxGeometry width="50" height="50" relative="1" as="geometry">
            <mxPoint x="777" y="761" as="sourcePoint" />
            <mxPoint x="730" y="700" as="targetPoint" />
          </mxGeometry>
        </mxCell>
        <mxCell id="juiyQA6KW7tlrc6tnAPI-42" value="" style="endArrow=none;html=1;rounded=0;entryX=0;entryY=0;entryDx=0;entryDy=0;exitX=1;exitY=1;exitDx=0;exitDy=0;" parent="1" source="juiyQA6KW7tlrc6tnAPI-22" target="juiyQA6KW7tlrc6tnAPI-33" edge="1">
          <mxGeometry width="50" height="50" relative="1" as="geometry">
            <mxPoint x="770" y="790" as="sourcePoint" />
            <mxPoint x="680" y="780" as="targetPoint" />
          </mxGeometry>
        </mxCell>
        <mxCell id="juiyQA6KW7tlrc6tnAPI-43" value="solicita" style="rhombus;whiteSpace=wrap;html=1;" parent="1" vertex="1">
          <mxGeometry x="425" y="200" width="80" height="80" as="geometry" />
        </mxCell>
        <mxCell id="juiyQA6KW7tlrc6tnAPI-44" value="" style="endArrow=none;html=1;rounded=0;exitX=1;exitY=0.5;exitDx=0;exitDy=0;" parent="1" source="juiyQA6KW7tlrc6tnAPI-1" target="juiyQA6KW7tlrc6tnAPI-43" edge="1">
          <mxGeometry width="50" height="50" relative="1" as="geometry">
            <mxPoint x="400" y="440" as="sourcePoint" />
            <mxPoint x="450" y="390" as="targetPoint" />
          </mxGeometry>
        </mxCell>
        <mxCell id="juiyQA6KW7tlrc6tnAPI-45" value="" style="endArrow=none;html=1;rounded=0;exitX=1;exitY=0.5;exitDx=0;exitDy=0;entryX=0;entryY=0.5;entryDx=0;entryDy=0;" parent="1" source="juiyQA6KW7tlrc6tnAPI-43" target="juiyQA6KW7tlrc6tnAPI-13" edge="1">
          <mxGeometry width="50" height="50" relative="1" as="geometry">
            <mxPoint x="330" y="250" as="sourcePoint" />
            <mxPoint x="435" y="250" as="targetPoint" />
          </mxGeometry>
        </mxCell>
        <mxCell id="juiyQA6KW7tlrc6tnAPI-46" value="(1,N)" style="text;html=1;strokeColor=none;fillColor=none;align=center;verticalAlign=middle;whiteSpace=wrap;rounded=0;" parent="1" vertex="1">
          <mxGeometry x="530" y="210" width="60" height="30" as="geometry" />
        </mxCell>
        <mxCell id="juiyQA6KW7tlrc6tnAPI-47" value="(1,N)" style="text;html=1;strokeColor=none;fillColor=none;align=center;verticalAlign=middle;whiteSpace=wrap;rounded=0;" parent="1" vertex="1">
          <mxGeometry x="350" y="210" width="60" height="30" as="geometry" />
        </mxCell>
        <mxCell id="juiyQA6KW7tlrc6tnAPI-50" value="(1,N)" style="text;html=1;strokeColor=none;fillColor=none;align=center;verticalAlign=middle;whiteSpace=wrap;rounded=0;" parent="1" vertex="1">
          <mxGeometry x="320" y="510" width="60" height="30" as="geometry" />
        </mxCell>
        <mxCell id="juiyQA6KW7tlrc6tnAPI-51" value="(0,N)" style="text;html=1;strokeColor=none;fillColor=none;align=center;verticalAlign=middle;whiteSpace=wrap;rounded=0;" parent="1" vertex="1">
          <mxGeometry x="530" y="520" width="60" height="30" as="geometry" />
        </mxCell>
        <mxCell id="juiyQA6KW7tlrc6tnAPI-52" value="participa" style="rhombus;whiteSpace=wrap;html=1;" parent="1" vertex="1">
          <mxGeometry x="620" y="360" width="80" height="80" as="geometry" />
        </mxCell>
        <mxCell id="juiyQA6KW7tlrc6tnAPI-53" value="" style="endArrow=none;html=1;rounded=0;exitX=0.5;exitY=0;exitDx=0;exitDy=0;entryX=0.5;entryY=1;entryDx=0;entryDy=0;" parent="1" source="juiyQA6KW7tlrc6tnAPI-52" target="juiyQA6KW7tlrc6tnAPI-13" edge="1">
          <mxGeometry width="50" height="50" relative="1" as="geometry">
            <mxPoint x="830" y="340" as="sourcePoint" />
            <mxPoint x="880" y="290" as="targetPoint" />
          </mxGeometry>
        </mxCell>
        <mxCell id="juiyQA6KW7tlrc6tnAPI-55" value="" style="endArrow=none;html=1;rounded=0;entryX=0.5;entryY=1;entryDx=0;entryDy=0;exitX=0.5;exitY=0;exitDx=0;exitDy=0;" parent="1" source="juiyQA6KW7tlrc6tnAPI-22" target="juiyQA6KW7tlrc6tnAPI-52" edge="1">
          <mxGeometry width="50" height="50" relative="1" as="geometry">
            <mxPoint x="830" y="340" as="sourcePoint" />
            <mxPoint x="880" y="290" as="targetPoint" />
          </mxGeometry>
        </mxCell>
        <mxCell id="juiyQA6KW7tlrc6tnAPI-56" value="(1,N)" style="text;html=1;strokeColor=none;fillColor=none;align=center;verticalAlign=middle;whiteSpace=wrap;rounded=0;" parent="1" vertex="1">
          <mxGeometry x="660" y="315" width="60" height="30" as="geometry" />
        </mxCell>
        <mxCell id="juiyQA6KW7tlrc6tnAPI-57" value="(1,N)" style="text;html=1;strokeColor=none;fillColor=none;align=center;verticalAlign=middle;whiteSpace=wrap;rounded=0;" parent="1" vertex="1">
          <mxGeometry x="660" y="470" width="60" height="30" as="geometry" />
        </mxCell>
        <mxCell id="juiyQA6KW7tlrc6tnAPI-58" value="" style="endArrow=none;html=1;rounded=0;exitX=0;exitY=0.5;exitDx=0;exitDy=0;" parent="1" source="juiyQA6KW7tlrc6tnAPI-52" target="juiyQA6KW7tlrc6tnAPI-59" edge="1">
          <mxGeometry width="50" height="50" relative="1" as="geometry">
            <mxPoint x="510" y="340" as="sourcePoint" />
            <mxPoint x="570" y="400" as="targetPoint" />
          </mxGeometry>
        </mxCell>
        <mxCell id="juiyQA6KW7tlrc6tnAPI-59" value="num_horas" style="ellipse;whiteSpace=wrap;html=1;" parent="1" vertex="1">
          <mxGeometry x="390" y="380" width="140" height="40" as="geometry" />
        </mxCell>
        <mxCell id="juiyQA6KW7tlrc6tnAPI-61" value="&lt;b&gt;&lt;u&gt;id_rol&lt;/u&gt;&lt;/b&gt;" style="ellipse;whiteSpace=wrap;html=1;" parent="1" vertex="1">
          <mxGeometry x="-40" y="470" width="140" height="40" as="geometry" />
        </mxCell>
        <mxCell id="juiyQA6KW7tlrc6tnAPI-62" value="" style="endArrow=none;html=1;rounded=0;entryX=0;entryY=0.5;entryDx=0;entryDy=0;exitX=1;exitY=0.5;exitDx=0;exitDy=0;" parent="1" source="juiyQA6KW7tlrc6tnAPI-61" target="juiyQA6KW7tlrc6tnAPI-24" edge="1">
          <mxGeometry width="50" height="50" relative="1" as="geometry">
            <mxPoint x="100" y="500" as="sourcePoint" />
            <mxPoint x="150" y="450" as="targetPoint" />
          </mxGeometry>
        </mxCell>
        <mxCell id="t2lgY1xXo85gB_aFgsYr-1" value="nombre_rol" style="ellipse;whiteSpace=wrap;html=1;" parent="1" vertex="1">
          <mxGeometry x="-50" y="580" width="140" height="40" as="geometry" />
        </mxCell>
        <mxCell id="t2lgY1xXo85gB_aFgsYr-2" value="" style="endArrow=none;html=1;rounded=0;entryX=0;entryY=0.75;entryDx=0;entryDy=0;exitX=1;exitY=0.5;exitDx=0;exitDy=0;" parent="1" source="t2lgY1xXo85gB_aFgsYr-1" target="juiyQA6KW7tlrc6tnAPI-24" edge="1">
          <mxGeometry width="50" height="50" relative="1" as="geometry">
            <mxPoint x="110" y="650" as="sourcePoint" />
            <mxPoint x="160" y="600" as="targetPoint" />
          </mxGeometry>
        </mxCell>
      </root>
    </mxGraphModel>
  </diagram>
</mxfile>
